<svg
  width="87"
  height="82"
  viewBox="0 0 37 32"
  fill="none"
  xmlns="http://www.w3.org/2000/svg"
>
  <g>
    <path
      d="M14.3807 2.21646L0.915602 25.2588C-1.3887 29.2047 3.02415 33.6502 6.99796 31.387L16.0278 26.2466C17.4009 25.4653 19.0872 25.4653 20.463 26.2466L29.4929 31.387C33.4667 33.6502 37.8796 29.2047 35.5753 25.2588L22.1102 2.21646C20.3847 -0.738821 16.1061 -0.738821 14.3807 2.21646Z"
      fill="#1FC4DB"
    ></path>
    <path
      d="M33.3465 21.4438L35.5753 25.2586C37.8797 29.2045 33.4668 33.65 29.493 31.3868L20.4631 26.2437C19.0901 25.4623 17.4038 25.4623 16.0279 26.2437L10.8936 29.1655L27.2558 19.8168C29.3895 18.6001 32.1077 19.3257 33.3465 21.4438Z"
      fill="white"
    ></path>
  </g>
</svg>